<mxfile host="app.diagrams.net" modified="2023-07-31T14:04:33.566Z" agent="Mozilla/5.0 (Windows NT 10.0; Win64; x64) AppleWebKit/537.36 (KHTML, like Gecko) Chrome/115.0.0.0 Safari/537.36 Edg/115.0.1901.188" version="21.6.5" etag="ihODYGzwafC98SH4QRu6" type="github">
  <diagram name="PÃ¡gina-1" id="Iyse8aNnZCiBCRjQOUqI">
    <mxGraphModel>
      <root>
        <mxCell id="0" />
        <mxCell id="1" parent="0" />
      </root>
    </mxGraphModel>
  </diagram>
</mxfile>
